<?xml version="1.0" encoding="iso-8859-1"?>
<!-- Generator: Adobe Illustrator 19.0.0, SVG Export Plug-In . SVG Version: 6.00 Build 0)  -->
<svg version="1.1" id="Capa_1" xmlns="http://www.w3.org/2000/svg" xmlns:xlink="http://www.w3.org/1999/xlink" x="0px" y="0px"
	 viewBox="0 0 512 512" style="enable-background:new 0 0 512 512;" xml:space="preserve" fill="#169d50">
<g>
	<g>
		<path d="M415.807,126.193c-32.876-32.875-74.099-54.359-118.887-62.505C299.532,57.992,301,51.666,301,45
			c0-24.813-20.187-45-45-45s-45,20.187-45,45c0,6.666,1.468,12.992,4.08,18.688c-44.788,8.146-86.011,29.63-118.886,62.505
			C53.508,168.88,30,225.633,30,286s23.508,117.12,66.194,159.807C138.879,488.492,195.633,512,256,512
			s117.12-23.508,159.807-66.193C458.492,403.12,482,346.367,482,286S458.492,168.88,415.807,126.193z M256,30
			c8.271,0,15,6.729,15,15s-6.729,15-15,15s-15-6.729-15-15S247.729,30,256,30z M256,482c-108.075,0-196-87.925-196-196
			S147.925,90,256,90s196,87.925,196,196S364.075,482,256,482z"/>
	</g>
</g>
<g>
	<g>
		<rect x="241" y="120" width="30" height="40"/>
	</g>
</g>
<g>
	<g>
		<rect x="90" y="271" width="40" height="30"/>
	</g>
</g>
<g>
	<g>
		<rect x="241" y="412" width="30" height="40"/>
	</g>
</g>
<g>
	<g>
		<rect x="382" y="271" width="40" height="30"/>
	</g>
</g>
<g>
	<g>
		<path d="M220.121,250.12l-76.884,148.644L291.88,321.88l76.884-148.644L220.121,250.12z M269.618,299.618L213.2,328.801
			l29.182-56.419l56.419-29.183L269.618,299.618z"/>
	</g>
</g>

</svg>
