<?xml version="1.0" encoding="iso-8859-1"?>
<!-- Generator: Adobe Illustrator 19.0.0, SVG Export Plug-In . SVG Version: 6.00 Build 0)  -->
<svg version="1.1" id="Layer_1" xmlns="http://www.w3.org/2000/svg" xmlns:xlink="http://www.w3.org/1999/xlink" x="0px" y="0px"
	 viewBox="0 0 512 512" style="enable-background:new 0 0 512 512;" xml:space="preserve" fill="#169d50">
<g>
	<g>
		<path d="M286,106h-15V91c0-8.284-6.716-15-15-15s-15,6.716-15,15v30c0,8.284,6.716,15,15,15h30c8.284,0,15-6.716,15-15
			S294.284,106,286,106z"/>
	</g>
</g>
<g>
	<g>
		<path d="M497,226c-8.284,0-15,6.716-15,15c0,19.889-12.975,36.794-30.901,42.725c-5.917-57.571-43.628-105.709-95.218-130.338
			C359.199,143.181,361,132.298,361,121c0-57.897-47.103-105-105-105c-57.897,0-105,47.103-105,105
			c0,7.158,0.722,14.15,2.094,20.909c-8.079,2.25-16.048,5.123-23.848,8.625C113.208,141.134,94.139,136,75,136
			c-28.014,0-50.762,10.933-70.608,30.786c-5.855,5.858-5.855,15.353,0,21.21l40.885,44.494c-3.955,8.399-7.08,16.709-9.428,25.073
			C15.246,262.967,0,281.749,0,304.023V331c0,14.301,10.342,28.617,26.99,37.361c13.792,7.244,25.972,17.609,35.222,29.974
			C77.613,418.921,97.8,435.831,121,447.664V481c0,8.284,6.716,15,15,15h60c8.284,0,15-6.716,15-15v-15h60v15
			c0,8.284,6.716,15,15,15h60c8.284,0,15-6.716,15-15v-33.068c51.749-26.323,85.521-76.927,90.366-133.327
			C485.87,307.881,512,277.441,512,241C512,232.716,505.284,226,497,226z M256,46c41.355,0,75,33.645,75,75s-33.645,75-75,75
			c-41.355,0-75-33.645-75-75S214.645,46,256,46z M339.991,424.691c-5.462,2.388-8.991,7.783-8.991,13.744V466h-30v-15
			c0-8.284-6.716-15-15-15h-90c-8.284,0-15,6.716-15,15v15h-30v-27.816c0-5.95-3.517-11.337-8.963-13.731
			c-22.245-9.78-41.542-25.026-55.804-44.089c-11.91-15.919-27.572-29.253-45.293-38.562C33.208,337.741,30.024,332.5,30,331
			v-26.977c0-9.428,7.28-17.174,16.511-17.946C54.075,286.837,60,293.239,60,301c0,8.284,6.716,15,15,15s15-6.716,15-15
			c0-17.198-9.701-32.167-23.915-39.739c2.602-8.062,6.12-16.167,10.664-24.511c3.181-5.84,2.136-13.078-2.566-17.781l-40.53-40.53
			C45.822,170.346,60.084,166,75,166c14.669,0,29.792,4.353,41.59,11.963c0.031,0.027,0.061,0.055,0.092,0.082
			c0.557,0.494,1.398,1.24,2.49,2.016c4.564,3.245,10.556,3.677,15.538,1.121c9.271-4.756,18.844-8.41,28.574-10.947
			c5.913,11.089,13.756,20.998,23.08,29.277C183.087,202.264,181,206.387,181,211c0,8.284,6.716,15,15,15h113.555
			c8.284,0,15-6.716,15-15c0-3.109-0.946-5.997-2.566-8.393c7.897-6.397,14.849-13.914,20.615-22.309
			C454.081,233.29,443.172,379.579,339.991,424.691z"/>
	</g>
</g>
<g>
	<g>
		<circle cx="136" cy="271" r="15"/>
	</g>
</g>
<g>
</g>
<g>
</g>
<g>
</g>
<g>
</g>
<g>
</g>
<g>
</g>
<g>
</g>
<g>
</g>
<g>
</g>
<g>
</g>
<g>
</g>
<g>
</g>
<g>
</g>
<g>
</g>
<g>
</g>
</svg>
