<?xml version="1.0" encoding="utf-8"?>
<!-- Generator: Adobe Illustrator 16.0.0, SVG Export Plug-In . SVG Version: 6.00 Build 0)  -->
<!DOCTYPE svg PUBLIC "-//W3C//DTD SVG 1.1//EN" "http://www.w3.org/Graphics/SVG/1.1/DTD/svg11.dtd">
<svg version="1.1" id="Layer_1" xmlns="http://www.w3.org/2000/svg" xmlns:xlink="http://www.w3.org/1999/xlink" x="0px" y="0px"
	 width="389.245px" height="121.5px" viewBox="0 0 389.245 121.5" enable-background="new 0 0 389.245 121.5" xml:space="preserve">
<g>
	<path fill="#DB242E" d="M164.765,74.712h19.104c0.752-3.085,1.262-6.264,1.529-9.515h-20.637v9.515H164.765z"/>
	<path fill="#DB242E" d="M164.765,51.13v8.799h20.852c-0.016-2.988-0.24-5.926-0.668-8.799H164.765z"/>
	<path fill="#DB242E" d="M158.774,45.862h25.141c-6.451-26.823-30.576-46.756-59.375-46.756c-33.738,0-61.084,27.348-61.084,61.083
		c0,33.734,27.346,61.082,61.084,61.082c26.768,0,49.496-17.223,57.748-41.182l-23.508-0.104V45.862H158.774z M123.362,79.984
		H97.784v-4.856l17.398-23.995H97.784v-5.268h25.219v4.808l-17.494,24.045h17.854V79.984z M152.628,51.13h-17.396v8.799h17.037
		v5.269h-17.037v9.515h17.396v5.269h-23.377V45.862h23.377V51.13z"/>
	<polygon fill="#FFFFFF" points="123.003,50.67 123.003,45.862 97.782,45.862 97.782,51.13 115.175,51.13 97.782,75.121 
		97.782,79.984 123.362,79.984 123.362,74.712 105.509,74.712 	"/>
	<polygon fill="#FFFFFF" points="129.251,79.984 152.628,79.984 152.628,74.712 135.235,74.712 135.235,65.197 152.271,65.197 
		152.271,59.929 135.235,59.929 135.235,51.13 152.628,51.13 152.628,45.862 129.251,45.862 	"/>
	<path fill="#FFFFFF" d="M164.765,51.13h20.184c-0.266-1.786-0.617-3.538-1.033-5.268h-25.141v34.122l23.512,0.105
		c0.604-1.76,1.135-3.549,1.582-5.375h-19.104v-9.518h20.637c0.137-1.652,0.221-3.325,0.221-5.011c0-0.084-0.006-0.171-0.006-0.258
		h-20.852V51.13z"/>
	<polygon fill="#DB242E" points="211.886,69.494 194.437,45.862 188.304,45.862 188.304,79.984 194.288,79.984 194.288,55.581 
		212.089,79.984 217.87,79.984 217.87,45.862 211.886,45.862 	"/>
	<polygon fill="#DB242E" points="225.146,79.984 248.522,79.984 248.522,74.712 231.13,74.712 231.13,65.197 248.165,65.197 
		248.165,59.929 231.13,59.929 231.13,51.13 248.522,51.13 248.522,45.862 225.146,45.862 	"/>
	<polygon fill="#DB242E" points="283.579,72.104 276.519,45.862 271.757,45.862 264.696,72.104 258.046,45.862 251.399,45.862 
		261.116,79.984 267.517,79.984 274.159,54.761 280.759,79.984 287.159,79.984 296.925,45.862 290.222,45.862 	"/>
	<path fill="#DB242E" d="M305.94,54.862c0-2.507,2.256-4.245,5.732-4.245c3.578,0,7.213,1.229,9.924,3.94l3.379-4.45
		c-3.125-3.068-7.469-4.808-12.74-4.808c-7.521,0-12.436,4.349-12.436,10.029c0,12.531,19.85,8.081,19.85,15.243
		c0,2.301-1.889,4.707-6.801,4.707c-4.756,0-8.492-2.25-10.799-4.756l-3.377,4.652c3.074,3.172,7.625,5.424,13.914,5.424
		c9.162,0,13.201-4.908,13.201-10.59C325.788,57.318,305.94,61.257,305.94,54.862z"/>
</g>
</svg>
