<svg xmlns="http://www.w3.org/2000/svg" viewBox="0 0 105 105"><defs><style>.cls-1{fill:none;stroke:#7991a8;stroke-miterlimit:10;stroke-width:4px;}.cls-2{fill:#7991a8;}</style></defs><title>aadhaar</title><g id="Layer_2" data-name="Layer 2"><g id="Layer_1-2" data-name="Layer 1"><path class="cls-1" d="M91.4,103H13.6A11.62,11.62,0,0,1,2,91.4V13.6A11.62,11.62,0,0,1,13.6,2H91.4A11.62,11.62,0,0,1,103,13.6V91.4A11.62,11.62,0,0,1,91.4,103Z"/><path class="cls-2" d="M51.76,23.32a6.88,6.88,0,0,1-1.5,1.5,10.93,10.93,0,0,0-2.16,2.24,7.57,7.57,0,0,0-1,2.44v.3h.31l1-.12a30.93,30.93,0,0,1,8.1.1c.34.06.49.06.49,0s-.06-.29-.12-.55a6.47,6.47,0,0,0-.75-1.8,9.57,9.57,0,0,0-2.49-2.7,11.34,11.34,0,0,1-1.27-1.23,2.87,2.87,0,0,0-.31-.4Z"/><path class="cls-2" d="M69.36,27.88a6.81,6.81,0,0,1-1.84.52,9.46,9.46,0,0,0-4.26,1.51,7,7,0,0,0-1.34,1.26l.62.25a28.65,28.65,0,0,1,7.22,4.15c.71.56.69.56.84,0a6.15,6.15,0,0,0,.25-2.21,8.62,8.62,0,0,0-.75-3.24,8.09,8.09,0,0,1-.53-2v-.4Z"/><path class="cls-2" d="M34.2,28.27A3.88,3.88,0,0,1,34,29.33a24.42,24.42,0,0,0-.88,2.79A9.46,9.46,0,0,0,33,34.88a4.38,4.38,0,0,0,.37,1.18,5.37,5.37,0,0,0,.52-.38,28.9,28.9,0,0,1,7.25-4.21l.72-.29a6.3,6.3,0,0,0-.77-.85,7.4,7.4,0,0,0-2.94-1.53c-.31-.09-1.07-.25-1.7-.36a7,7,0,0,1-2-.54.34.34,0,0,0-.19-.09A1.17,1.17,0,0,0,34.2,28.27Z"/><path class="cls-2" d="M47.65,32.63l-.84.09a21.69,21.69,0,0,0-7.33,2.17,25.93,25.93,0,0,0-8.72,7.23c-.27.34-.25.32.66-.43a29.34,29.34,0,0,1,13.79-6.57,22.9,22.9,0,0,1,7.79.22,14.46,14.46,0,0,1,7.76,4.16,16.57,16.57,0,0,1,2.84,3.62,26,26,0,0,1,3.45,10.66c0,.33.09,1.26.12,2.06.06,1.53.09,1.77.32,2.1a.88.88,0,0,0,.81.45,1.26,1.26,0,0,0,1.21-1,12.27,12.27,0,0,0,0-2.1,25.4,25.4,0,0,0-.4-4.61c-1.28-7.31-5.25-13.09-11-16a19.07,19.07,0,0,0-7.17-2A20.67,20.67,0,0,0,47.65,32.63Z"/><path class="cls-2" d="M61,33.39a28.49,28.49,0,0,1,6.93,6.53A26.76,26.76,0,0,1,72,47.72,28.14,28.14,0,0,1,73.45,57v1.37h5.31v-.71a25.61,25.61,0,0,0-.56-4.54,27,27,0,0,0-17-19.83C60.37,33,60.35,33,61,33.39Z"/><path class="cls-2" d="M47.32,38a20.24,20.24,0,0,0-5.92,1.42,30.94,30.94,0,0,0-9.87,6.51,28.37,28.37,0,0,0-2.16,2.35,2.29,2.29,0,0,0-.5,1.21c0,.61.28.88.86.81s1.36-.62,2.77-1.88a35.88,35.88,0,0,1,4.33-3.46,23,23,0,0,1,10-4,17.65,17.65,0,0,1,3.56,0,11.3,11.3,0,0,1,8.9,6.32,21.83,21.83,0,0,1,2.09,9.83v1.26h2.73l0-.46a32.36,32.36,0,0,0-.28-5.3c-.61-4.5-2.05-7.6-4.78-10.33a14.27,14.27,0,0,0-10.17-4.33C48.42,37.94,47.69,37.94,47.32,38Z"/><path class="cls-2" d="M26.33,39.41a14.65,14.65,0,0,0-3.41,1,4.43,4.43,0,0,1-1.09.25c-.45,0-.55.09-.41.23a6.29,6.29,0,0,1,.57,2,9,9,0,0,0,1.65,4.35c.38.51,1,1.11,1.08,1a5.76,5.76,0,0,0,.32-.77,30.25,30.25,0,0,1,4.35-7.35,1.31,1.31,0,0,0,.22-.32,4.91,4.91,0,0,0-1.13-.34A9.09,9.09,0,0,0,26.33,39.41Z"/><path class="cls-2" d="M75.67,39.41a9.91,9.91,0,0,0-1.49.39,6.22,6.22,0,0,0,.43.58,29.49,29.49,0,0,1,4.22,7.29c.3.75.26.74.85.13a7.72,7.72,0,0,0,2-4.19,12.42,12.42,0,0,1,.62-2.56l.18-.39h-.34a6.11,6.11,0,0,1-2-.53,10.57,10.57,0,0,0-2.55-.69A6.86,6.86,0,0,0,75.67,39.41Z"/><path class="cls-2" d="M46.89,44.12c-3.5.43-7.28,2.29-11,5.44a57.08,57.08,0,0,0-4.4,4.4C30.33,55.3,28,58.22,28,58.34a17.22,17.22,0,0,0,1.76,0h1.76l.37-.5a38.74,38.74,0,0,1,8.71-8.34c2.76-1.86,5.14-2.77,7.23-2.77a6.64,6.64,0,0,1,5.23,2.1A5.1,5.1,0,0,1,54.58,52c0,.66-.3,1-.89,1s-1-.31-1.74-1.23c-1.59-2.09-3.85-2.71-6.58-1.81a19.82,19.82,0,0,0-4.8,2.67,31,31,0,0,0-3,2.74c-1,1-2.63,2.79-2.68,2.93a14.92,14.92,0,0,0,1.89.06h1.91l.17-.24a19.53,19.53,0,0,1,4.19-3.83c2.9-1.93,5.36-2.19,6.66-.7a5.45,5.45,0,0,1,.9,1.88,6.5,6.5,0,0,1,.15,1.65v1.2h2.58v-.58a14.53,14.53,0,0,1,.21-2.47c.18-.62.51-.9,1-.9a.55.55,0,0,1,.51.2c.39.4.61,1.31.67,2.84v.91h2.7v-1.2A17.92,17.92,0,0,0,57,49.75a9.31,9.31,0,0,0-5.07-5.13A11.4,11.4,0,0,0,46.89,44.12Z"/><path class="cls-2" d="M27.22,51.2a4.3,4.3,0,0,0-1.54,2.57c-.09,1.14.83,1.27,1.82.24a5.65,5.65,0,0,0,1.07-1.41A1.06,1.06,0,0,0,28,51.2a.9.9,0,0,0-.28-.08A1.45,1.45,0,0,0,27.22,51.2Z"/><path class="cls-2" d="M23,53.5a7.07,7.07,0,0,0-1.76.66,9.77,9.77,0,0,0-2.82,2.5,7.12,7.12,0,0,1-1.49,1.46l-.24.18H22.9v-.94c.05-1.11.18-2.57.31-3.39a2.05,2.05,0,0,0,.07-.6A1.51,1.51,0,0,0,23,53.5Z"/><path class="cls-2" d="M80.47,53.56a25.49,25.49,0,0,1,.38,3.71v1.1h6.23L86.76,58a10.49,10.49,0,0,1-1-1,15.23,15.23,0,0,0-1.68-1.82,7.43,7.43,0,0,0-3.43-1.74C80.45,53.4,80.44,53.41,80.47,53.56Z"/><path class="cls-2" d="M45.85,55.47a7.35,7.35,0,0,0-2,1,16.48,16.48,0,0,0-1.92,1.73l-.1.14h1.43c1.37,0,1.44,0,1.78-.19s.75-.19.89,0a.27.27,0,0,1,.1.17c0,.06.29.08,1.08.08,1,0,1.08,0,1.12-.11a4.85,4.85,0,0,0-.06-1.7,1.59,1.59,0,0,0-.79-1A2.36,2.36,0,0,0,45.85,55.47Z"/><path class="cls-2" d="M18.13,77.3l-.93,3.33h-3l4-13H22l4,13H22.85l-1-3.33Zm3.29-2.18-.81-2.75c-.23-.77-.46-1.74-.65-2.51h0c-.19.77-.39,1.76-.6,2.51l-.81,2.75Z"/><path class="cls-2" d="M33,80.63l-.18-.94h0a3.41,3.41,0,0,1-2.7,1.16,2.89,2.89,0,0,1-3-2.73c0-.05,0-.11,0-.16,0-2.45,2.2-3.63,5.53-3.61v-.13c0-.5-.27-1.22-1.71-1.22a5.19,5.19,0,0,0-2.6.72l-.54-1.89A7.64,7.64,0,0,1,31.42,71c3.14,0,4.14,1.85,4.14,4.07v3.27a16,16,0,0,0,.14,2.29Zm-.35-4.45c-1.54,0-2.74.35-2.74,1.49a1.07,1.07,0,0,0,1,1.12h.16a1.61,1.61,0,0,0,1.52-1.08,1.49,1.49,0,0,0,.06-.51Z"/><path class="cls-2" d="M47,67V77.82c0,1.06,0,2.18.08,2.81h-2.6l-.14-1.38h0a3.29,3.29,0,0,1-2.94,1.6c-2.24,0-4-1.91-4-4.84,0-3.18,2-5,4.22-5a2.81,2.81,0,0,1,2.48,1.06h0V67ZM44,75.2a4.51,4.51,0,0,0,0-.52,1.73,1.73,0,0,0-1.71-1.45c-1.33,0-2,1.2-2,2.68s.79,2.6,2,2.6A1.71,1.71,0,0,0,44,77.12a2.62,2.62,0,0,0,.07-.68Z"/><path class="cls-2" d="M49.32,67h2.92v5.38h0a3.48,3.48,0,0,1,1.16-1A3.13,3.13,0,0,1,54.92,71c1.87,0,3.3,1.29,3.3,4.12v5.51H55.33V75.45c0-1.23-.43-2.08-1.52-2.08a1.56,1.56,0,0,0-1.47,1,2.07,2.07,0,0,0-.1.66v5.58H49.32Z"/><path class="cls-2" d="M66,80.63l-.21-.94h0a3.41,3.41,0,0,1-2.7,1.16,2.88,2.88,0,0,1-3-2.76s0-.09,0-.13c0-2.45,2.19-3.63,5.53-3.61v-.13c0-.5-.27-1.22-1.72-1.22a5.3,5.3,0,0,0-2.6.72l-.54-1.89A7.79,7.79,0,0,1,64.39,71c3.14,0,4.15,1.85,4.15,4.07v3.27a16,16,0,0,0,.13,2.29Zm-.35-4.45c-1.54,0-2.73.35-2.73,1.49a1.05,1.05,0,0,0,1,1.12H64a1.61,1.61,0,0,0,1.53-1.08,2.17,2.17,0,0,0,0-.51Z"/><path class="cls-2" d="M76.15,80.63,76,79.69h0a3.41,3.41,0,0,1-2.7,1.16,2.89,2.89,0,0,1-3-2.78s0-.07,0-.11c0-2.45,2.2-3.63,5.53-3.61v-.13c0-.5-.26-1.22-1.71-1.22a5.19,5.19,0,0,0-2.6.72L71,71.83A7.64,7.64,0,0,1,74.61,71c3.14,0,4.14,1.85,4.14,4.07v3.27a15.91,15.91,0,0,0,0,2.29Zm-.39-4.45c-1.54,0-2.74.35-2.74,1.49a1.07,1.07,0,0,0,1,1.12h.16a1.61,1.61,0,0,0,1.58-1.08,1.49,1.49,0,0,0,.06-.51Z"/><path class="cls-2" d="M81,74.31c0-1.38,0-2.29-.08-3.1h2.53L83.51,73h.08a2.77,2.77,0,0,1,2.54-2,3.21,3.21,0,0,1,.62,0V73.7a4.15,4.15,0,0,0-.79-.07,1.87,1.87,0,0,0-2,1.48,3.68,3.68,0,0,0-.06.66v4.77H81Z"/></g></g></svg>