<svg xmlns="http://www.w3.org/2000/svg" xmlns:xlink="http://www.w3.org/1999/xlink" width="153" height="78" viewBox="0 0 153 78">
  <defs>
    <clipPath id="clip-bhim">
      <rect width="153" height="78"/>
    </clipPath>
  </defs>
  <g id="bhim" clip-path="url(#clip-bhim)">
    <rect width="153" height="78" fill="#fff"/>
    <g id="bhim-2" data-name="bhim" transform="translate(2.222 -2.119)">
      <path id="Path_23" data-name="Path 23" d="M40.885,38.51A2.354,2.354,0,0,1,42,41.727c-.658,2.143-1.2,4.32-1.8,6.483a3.946,3.946,0,0,1-4.621,3.557q-13.647,0-27.293.021c-.722,0-.977-.065-.75-.872q3.507-12.453,6.95-24.923a.98.98,0,0,1,1.119-.862c9.369.024,18.738.016,28.106.03a1.886,1.886,0,0,1,2.116,2.6c-.706,2.773-1.479,5.53-2.283,8.277A3.968,3.968,0,0,1,40.885,38.51ZM28.327,30.373c-2.9,0-5.808.023-8.712-.015a1.113,1.113,0,0,0-1.329,1.059,30.054,30.054,0,0,1-.948,3.346c-.241.75-.2,1.139.764,1.133,5.846-.031,11.693,0,17.54-.025A3.473,3.473,0,0,0,39.1,33.011a1.888,1.888,0,0,0-2.065-2.634C34.134,30.368,31.231,30.375,28.327,30.373ZM23.914,46.6H32.5A3.536,3.536,0,0,0,35.7,44.86c1.182-1.917.383-3.78-1.643-3.788-5.839-.022-11.677,0-17.516-.02a1.013,1.013,0,0,0-1.166.843c-.306,1.2-.582,2.408-.994,3.571-.368,1.04.058,1.158.945,1.147,2.861-.037,5.722-.014,8.584-.011Z" transform="translate(1.167 0.002)" fill="#707174"/>
      <path id="Path_24" data-name="Path 24" d="M67.389,39.349c-.892.793-1.786,1.564-2.655,2.364q-4.995,4.6-9.968,9.218c-.554.517-.835.6-1.268-.158-2.45-4.3-4.952-8.574-7.44-12.855a2.528,2.528,0,0,0-.271-.312,3.185,3.185,0,0,0-.671,1.662q-1.564,5.586-3.051,11.193a1.18,1.18,0,0,1-1.4,1.117c-1.116-.087-2.244-.029-3.366-.015-.518.007-.8-.069-.622-.721q3.5-12.635,6.972-25.279a1.122,1.122,0,0,1,.2-.251,4.408,4.408,0,0,1,1.07,1.452q4.722,7.854,9.419,15.723c.7,1.176.685,1.15,1.742.248q8.516-7.266,17.052-14.509c1.141-.97,2.28-1.943,3.525-3.005a2.6,2.6,0,0,1-.277,1.646c-2.156,7.91-4.349,15.81-6.495,23.722a1.071,1.071,0,0,1-1.262.987,30.081,30.081,0,0,0-3.25,0c-.929.052-1-.29-.776-1.088.983-3.459,1.911-6.933,2.861-10.4a.638.638,0,0,0-.064-.733Z" transform="translate(51.378 0.174)" fill="#707174"/>
      <path id="Path_25" data-name="Path 25" d="M40.539,35.866c3.058,0,6.118-.058,9.174.03a1.452,1.452,0,0,0,1.649-1.345c.717-2.729,1.485-5.445,2.157-8.184A1.3,1.3,0,0,1,55.1,25.15a21.9,21.9,0,0,0,3.017,0c.813-.041,1,.195.772,1-1.154,4.095-2.258,8.2-3.379,12.308-1.079,3.952-2.182,7.9-3.219,11.862a1.525,1.525,0,0,1-1.885,1.446,16.693,16.693,0,0,0-2.9-.011c-.778.035-.907-.22-.694-.951.832-2.859,1.589-5.74,2.411-8.6.241-.838.131-1.175-.856-1.169q-9.348.056-18.7,0A1.28,1.28,0,0,0,28.2,42.234c-.722,2.887-1.578,5.741-2.331,8.621a1.014,1.014,0,0,1-1.21.906,27.579,27.579,0,0,0-3.25,0c-1.131.078-.945-.508-.751-1.212Q22.489,43.9,24.3,37.234c1.02-3.73,2.046-7.459,3.046-11.194a.953.953,0,0,1,1.1-.889c1.158.058,2.323.05,3.483,0,.807-.034.894.264.7.966-.828,2.939-1.584,5.9-2.433,8.832-.226.781-.033.934.707.928C34.113,35.852,37.327,35.867,40.539,35.866Z" transform="translate(23.64 0)" fill="#707174"/>
      <path id="Path_26" data-name="Path 26" d="M43.176,25.207h1.16c1.54,0,1.549,0,1.157,1.425Q42.26,38.359,39.015,50.083c-.485,1.751-.506,1.746-2.3,1.747-.851,0-1.7-.026-2.552.009-.764.031-.915-.222-.707-.965q3.08-11,6.1-22.007a18.585,18.585,0,0,0,.621-2.349A1.326,1.326,0,0,1,41.9,25.2a9.636,9.636,0,0,0,1.275.01Z" transform="translate(45.782 0.029)" fill="#707174"/>
      <path id="Path_27" data-name="Path 27" d="M56.237,46.1l-5.693,5.3-.186-.147c.653-2.415,1.3-4.832,1.96-7.243q2.474-8.991,4.966-17.978a.823.823,0,0,1,.412-.772c.394-.068.39.389.526.64.843,1.56,1.485,3.226,2.471,4.711A65.9,65.9,0,0,0,63.9,37.275a1.328,1.328,0,0,1-.393,1.864C61.054,41.427,58.656,43.773,56.237,46.1Z" transform="translate(75.036 0.217)" fill="#f07a25"/>
      <path id="Path_28" data-name="Path 28" d="M53.232,46.311c2.419-2.324,4.818-4.67,7.27-6.958a1.328,1.328,0,0,0,.393-1.864,65.894,65.894,0,0,1-3.207-6.673l1.694-5.7c.7,1.359,1.287,2.47,1.851,3.591,1.426,2.83,2.811,5.681,4.279,8.489a1.645,1.645,0,0,1-.464,2.344c-4.032,3.729-7.976,7.551-11.955,11.337a2.111,2.111,0,0,1-.99.718,35.877,35.877,0,0,0,1.128-5.289Z" transform="translate(78.041 0.004)" fill="#0c8d48"/>
      <path id="Path_29" data-name="Path 29" d="M36.072,36.31a.506.506,0,0,1-.536-.158C35.769,36.021,35.969,36,36.072,36.31Z" transform="translate(49.515 18.842)" fill="#707174"/>
      <path id="Path_30" data-name="Path 30" d="M22.154,27.074c2.9,0,5.808-.005,8.712,0a1.888,1.888,0,0,1,2.065,2.634,3.473,3.473,0,0,1-3.461,2.861c-5.846.022-11.693-.006-17.54.025-.968.005-1-.384-.764-1.133a30.055,30.055,0,0,0,.948-3.346,1.113,1.113,0,0,1,1.329-1.059C16.345,27.1,19.25,27.073,22.154,27.074Z" transform="translate(7.34 3.302)" fill="#f8f8f8"/>
      <path id="Path_31" data-name="Path 31" d="M19.614,36.529c-2.861,0-5.723-.024-8.584.012-.888.011-1.313-.107-.945-1.147.411-1.162.688-2.373.994-3.571a1.013,1.013,0,0,1,1.166-.843c5.839.02,11.677,0,17.516.02,2.026.008,2.825,1.871,1.643,3.788A3.536,3.536,0,0,1,28.2,36.531Z" transform="translate(5.466 10.072)" fill="#f8f8f8"/>
      <path id="Path_32" data-name="Path 32" d="M7.922,36.137a.165.165,0,0,1,.146-.114H9.439a.847.847,0,0,1,.941,1.1,1.664,1.664,0,0,1-.93.944.765.765,0,0,1,.5.97,1.717,1.717,0,0,1-1.635,1.148H6.864a.083.083,0,0,1-.08-.114Zm.526,3.346a.767.767,0,0,0,.7-.542.417.417,0,0,0-.462-.516H8.031l-.306,1.058h.723Zm.415-1.712a.732.732,0,0,0,.667-.537.357.357,0,0,0-.367-.505H8.522l-.3,1.042h.643Z" transform="translate(0 18.755)" fill="#707174"/>
      <path id="Path_33" data-name="Path 33" d="M9.864,36.13a.171.171,0,0,1,.146-.114h.558a.081.081,0,0,1,.077.114L10.191,37.7h1.951L12.6,36.13a.166.166,0,0,1,.149-.114h.55a.083.083,0,0,1,.077.114l-1.138,3.934a.165.165,0,0,1-.144.114h-.55a.084.084,0,0,1-.082-.114l.476-1.64H9.984l-.476,1.64a.159.159,0,0,1-.144.114H8.807a.085.085,0,0,1-.08-.114Z" transform="translate(3.347 18.762)" fill="#707174"/>
      <path id="Path_34" data-name="Path 34" d="M10.823,40.059l3.017-4a.15.15,0,0,1,.12-.066h.064a.07.07,0,0,1,.08.066l.686,4a.145.145,0,0,1-.149.157h-.519a.12.12,0,0,1-.138-.12l-.109-.643H12.083l-.476.643a.255.255,0,0,1-.207.12h-.521C10.792,40.215,10.765,40.138,10.823,40.059Zm2.95-1.263-.221-1.31h-.019l-.962,1.31h1.2Z" transform="translate(6.912 18.725)" fill="#707174"/>
      <path id="Path_35" data-name="Path 35" d="M14.187,36.131a.16.16,0,0,1,.146-.114h1.709a.938.938,0,0,1,.936,1.279,1.939,1.939,0,0,1-1.236,1.2L16.128,40a.154.154,0,0,1-.154.175h-.627a.075.075,0,0,1-.08-.053l-.34-1.576h-.664l-.439,1.515a.168.168,0,0,1-.146.114h-.548a.083.083,0,0,1-.082-.114Zm1.239,1.784a.88.88,0,0,0,.771-.606.429.429,0,0,0-.428-.577H14.8l-.343,1.183Z" transform="translate(10.783 18.761)" fill="#707174"/>
      <path id="Path_36" data-name="Path 36" d="M14.917,40.059l3.017-4a.15.15,0,0,1,.12-.066h.064a.07.07,0,0,1,.08.066l.686,4a.145.145,0,0,1-.149.157h-.519a.12.12,0,0,1-.138-.12l-.109-.643H16.177L15.7,40.1a.255.255,0,0,1-.207.12h-.521C14.885,40.215,14.859,40.138,14.917,40.059Zm2.95-1.263-.221-1.31h-.019l-.962,1.31h1.2Z" transform="translate(13.96 18.725)" fill="#707174"/>
      <path id="Path_37" data-name="Path 37" d="M18.249,36.731h-.914a.081.081,0,0,1-.08-.114l.138-.486a.166.166,0,0,1,.149-.114h2.613a.084.084,0,0,1,.082.114l-.141.486a.166.166,0,0,1-.149.114h-.915l-.965,3.333a.165.165,0,0,1-.146.114h-.555a.086.086,0,0,1-.082-.114Z" transform="translate(18.028 18.762)" fill="#707174"/>
      <path id="Path_38" data-name="Path 38" d="M20.964,36.13a.165.165,0,0,1,.146-.114h.556a.084.084,0,0,1,.08.114l-1.138,3.934a.168.168,0,0,1-.146.114h-.556a.085.085,0,0,1-.082-.114Z" transform="translate(22.453 18.762)" fill="#707174"/>
      <path id="Path_39" data-name="Path 39" d="M22.26,36.1a.159.159,0,0,1,.146-.106h.149L24.28,38.62h.005L25,36.167a.166.166,0,0,1,.149-.114h.55a.083.083,0,0,1,.077.114l-1.156,4a.158.158,0,0,1-.144.109h-.144l-1.709-2.727h-.005L21.872,40.1a.162.162,0,0,1-.146.114h-.542A.085.085,0,0,1,21.1,40.1Z" transform="translate(24.652 18.726)" fill="#707174"/>
      <path id="Path_40" data-name="Path 40" d="M24.576,36.731h-.915a.081.081,0,0,1-.08-.114l.138-.486a.166.166,0,0,1,.149-.114h2.613a.084.084,0,0,1,.082.114l-.141.486a.166.166,0,0,1-.149.114H25.36L24.4,40.064a.165.165,0,0,1-.146.114h-.556a.086.086,0,0,1-.082-.114Z" transform="translate(28.92 18.762)" fill="#707174"/>
      <path id="Path_41" data-name="Path 41" d="M26.213,36.13a.165.165,0,0,1,.146-.114h2.435a.084.084,0,0,1,.082.114l-.141.486a.166.166,0,0,1-.149.114h-1.77l-.282.973h1.478a.087.087,0,0,1,.082.114l-.144.494a.161.161,0,0,1-.146.112H26.327l-.3,1.042h1.77a.082.082,0,0,1,.082.112l-.141.486a.162.162,0,0,1-.146.114H25.155a.083.083,0,0,1-.08-.114Z" transform="translate(31.494 18.762)" fill="#707174"/>
      <path id="Path_42" data-name="Path 42" d="M28.092,36.131a.165.165,0,0,1,.146-.114H29.95a.936.936,0,0,1,.933,1.279,1.942,1.942,0,0,1-1.231,1.2L30.035,40a.152.152,0,0,1-.151.175h-.63a.081.081,0,0,1-.082-.053l-.338-1.576h-.664l-.439,1.515a.165.165,0,0,1-.144.114h-.553a.083.083,0,0,1-.08-.114Zm1.244,1.784a.877.877,0,0,0,.766-.606.428.428,0,0,0-.425-.577H28.7l-.343,1.183h.978Z" transform="translate(34.729 18.761)" fill="#707174"/>
      <path id="Path_43" data-name="Path 43" d="M30.142,36.13a.165.165,0,0,1,.146-.114h2.435a.084.084,0,0,1,.082.114l-.141.486a.166.166,0,0,1-.149.114h-1.77l-.322,1.116H31.9a.084.084,0,0,1,.08.114l-.141.486a.168.168,0,0,1-.146.114H30.217l-.436,1.5a.165.165,0,0,1-.144.114h-.553a.083.083,0,0,1-.08-.114Z" transform="translate(38.26 18.762)" fill="#707174"/>
      <path id="Path_44" data-name="Path 44" d="M30.6,40.059l3.017-4a.15.15,0,0,1,.12-.066H33.8a.07.07,0,0,1,.08.066l.686,4a.146.146,0,0,1-.149.157H33.9a.12.12,0,0,1-.138-.12l-.109-.643H31.857l-.476.643a.255.255,0,0,1-.207.12h-.521C30.565,40.215,30.538,40.138,30.6,40.059Zm2.95-1.263-.221-1.31h-.019l-.962,1.31h1.2Z" transform="translate(40.958 18.725)" fill="#707174"/>
      <path id="Path_45" data-name="Path 45" d="M35.753,36a1.527,1.527,0,0,1,1.289.553.119.119,0,0,1-.043.167l-.47.372a.1.1,0,0,1-.154,0,1.059,1.059,0,0,0-.819-.351,1.942,1.942,0,0,0-1.733,1.387.979.979,0,0,0,.941,1.372,1.868,1.868,0,0,0,1.013-.337.112.112,0,0,1,.152,0l.26.38a.125.125,0,0,1-.053.159,2.7,2.7,0,0,1-1.621.577,1.551,1.551,0,0,1-1.539-2.134A3.082,3.082,0,0,1,35.753,36Z" transform="translate(44.908 18.723)" fill="#707174"/>
      <path id="Path_46" data-name="Path 46" d="M36.037,36.13a.165.165,0,0,1,.146-.114h2.435a.084.084,0,0,1,.082.114l-.141.486a.166.166,0,0,1-.149.114H36.64l-.282.973h1.478a.087.087,0,0,1,.082.114l-.144.494a.161.161,0,0,1-.146.112H36.151l-.3,1.042h1.77a.082.082,0,0,1,.082.112l-.141.486a.162.162,0,0,1-.146.114H34.979a.083.083,0,0,1-.08-.114Z" transform="translate(48.409 18.762)" fill="#707174"/>
      <path id="Path_47" data-name="Path 47" d="M38.992,36.13a.165.165,0,0,1,.146-.114h2.435a.084.084,0,0,1,.082.114l-.141.486a.166.166,0,0,1-.149.114H39.6l-.322,1.116h1.478a.084.084,0,0,1,.08.114l-.141.486a.168.168,0,0,1-.146.114H39.066l-.436,1.5a.165.165,0,0,1-.144.114h-.553a.083.083,0,0,1-.08-.114Z" transform="translate(53.497 18.762)" fill="#707174"/>
      <path id="Path_48" data-name="Path 48" d="M42.617,36a1.557,1.557,0,0,1,1.534,2.145,3.068,3.068,0,0,1-2.772,2.134,1.545,1.545,0,0,1-1.528-2.134A3.069,3.069,0,0,1,42.617,36ZM41.6,39.5a1.982,1.982,0,0,0,1.77-1.364,1,1,0,0,0-.978-1.371,1.98,1.98,0,0,0-1.765,1.372A.993.993,0,0,0,41.6,39.5Z" transform="translate(56.741 18.724)" fill="#707174"/>
      <path id="Path_49" data-name="Path 49" d="M43.166,36.131a.16.16,0,0,1,.146-.114h1.709a.938.938,0,0,1,.936,1.279,1.939,1.939,0,0,1-1.236,1.2L45.106,40a.154.154,0,0,1-.154.175h-.627a.075.075,0,0,1-.08-.053L43.9,38.55H43.24L42.8,40.065a.168.168,0,0,1-.146.114h-.548a.083.083,0,0,1-.082-.114ZM44.4,37.915a.88.88,0,0,0,.771-.606.429.429,0,0,0-.428-.577h-.973l-.343,1.183H44.4Z" transform="translate(60.679 18.761)" fill="#707174"/>
      <path id="Path_50" data-name="Path 50" d="M46.926,36.085a.139.139,0,0,1,.136-.09h.1a.076.076,0,0,1,.082.058l.5,2.807h.021l2.124-2.807a.15.15,0,0,1,.12-.058h.1a.072.072,0,0,1,.082.09l-.449,3.992a.143.143,0,0,1-.149.138h-.542a.093.093,0,0,1-.09-.09l.3-2.251h-.019l-1.722,2.336a.144.144,0,0,1-.122.064h-.106a.078.078,0,0,1-.085-.064l-.38-2.336H46.8l-1,2.251a.166.166,0,0,1-.133.09h-.537c-.077,0-.112-.053-.074-.138Z" transform="translate(65.884 18.725)" fill="#707174"/>
      <path id="Path_51" data-name="Path 51" d="M50.593,36a1.556,1.556,0,0,1,1.531,2.145,3.068,3.068,0,0,1-2.772,2.134,1.545,1.545,0,0,1-1.528-2.134A3.072,3.072,0,0,1,50.593,36ZM49.575,39.5a1.982,1.982,0,0,0,1.773-1.364,1,1,0,0,0-.981-1.372A1.977,1.977,0,0,0,48.6,38.141a.992.992,0,0,0,.973,1.364Z" transform="translate(70.47 18.724)" fill="#707174"/>
      <path id="Path_52" data-name="Path 52" d="M51.156,36.1a.159.159,0,0,1,.146-.106h.149l1.725,2.626h.005l.71-2.453a.166.166,0,0,1,.149-.114h.55a.083.083,0,0,1,.077.114l-1.156,4a.159.159,0,0,1-.144.109h-.144l-1.709-2.727H51.51L50.768,40.1a.162.162,0,0,1-.146.114H50.08A.085.085,0,0,1,50,40.1Z" transform="translate(74.407 18.726)" fill="#707174"/>
      <path id="Path_53" data-name="Path 53" d="M53.423,36.13a.16.16,0,0,1,.146-.114H56a.081.081,0,0,1,.08.114l-.138.486a.166.166,0,0,1-.149.114h-1.77l-.282.973H55.22a.085.085,0,0,1,.082.114l-.144.494a.158.158,0,0,1-.146.112H53.535l-.3,1.042H55a.082.082,0,0,1,.082.112l-.141.486a.16.16,0,0,1-.146.114H52.366a.083.083,0,0,1-.082-.114Z" transform="translate(78.341 18.762)" fill="#707174"/>
      <path id="Path_54" data-name="Path 54" d="M55.154,38.174l-.789-1.986a.148.148,0,0,1,.146-.173h.611a.086.086,0,0,1,.08.053l.561,1.369,1.353-1.369a.185.185,0,0,1,.112-.053h.614c.1,0,.114.1.045.173l-1.951,1.98-.55,1.9a.171.171,0,0,1-.146.114h-.55a.084.084,0,0,1-.082-.114Z" transform="translate(81.932 18.763)" fill="#707174"/>
    </g>
  </g>
</svg>
