<svg xmlns="http://www.w3.org/2000/svg" viewBox="0 0 105 105"><defs><style>.cls-1{fill:none;stroke:#7991a8;stroke-miterlimit:10;stroke-width:4px;}.cls-2{fill:#7991a8;}</style></defs><title>bnkStatement</title><g id="Layer_2" data-name="Layer 2"><g id="Layer_1-2" data-name="Layer 1"><path class="cls-1" d="M91.4,103H13.6A11.62,11.62,0,0,1,2,91.4V13.6A11.62,11.62,0,0,1,13.6,2H91.4A11.62,11.62,0,0,1,103,13.6V91.4A11.62,11.62,0,0,1,91.4,103Z"/><path class="cls-2" d="M87.66,30.62,52.83,16.17a2.17,2.17,0,0,0-1.66,0L16.34,30.62a2.17,2.17,0,0,0-1.34,2V37a2.17,2.17,0,0,0,2.17,2.17H86.83A2.17,2.17,0,0,0,89,37V32.62A2.17,2.17,0,0,0,87.66,30.62ZM65,32.62H39a2.17,2.17,0,1,1,0-4.33H65a2.17,2.17,0,1,1,0,4.33Z"/><path class="cls-2" d="M19.12,72.37V76.7H35.74V72.37a2.17,2.17,0,0,0-2.17-2.17H21.29A2.17,2.17,0,0,0,19.12,72.37Z"/><path class="cls-2" d="M22,43.46H32.85v22.4H22Z"/><path class="cls-2" d="M32,85.59V84.41a6,6,0,0,1,1.36-3.8h-16A2.94,2.94,0,0,0,15,83.21v4.62A2.17,2.17,0,0,0,17.17,90H33.94A6,6,0,0,1,32,85.59Z"/><rect class="cls-2" x="15.06" y="80.59" width="33.41" height="9.88" rx="2.13"/><path class="cls-2" d="M83.51,41.91H57.7a1.34,1.34,0,0,0-1,.41l-5.11,5.17a1.42,1.42,0,0,0-.4,1V87.73a1.38,1.38,0,0,0,1.37,1.39H83.51a1.37,1.37,0,0,0,1.36-1.39V43.29A1.37,1.37,0,0,0,83.51,41.91Zm-20.62,14h1.38c1.9,0,2.86-.64,3.12-1.63h-4.5V52.68h4.42c-.36-.76-1.21-1.25-2.73-1.25H62.89V49.07H73.22v1.58H69.71a3.77,3.77,0,0,1,.94,2h2.57v1.58H70.63a4.35,4.35,0,0,1-4.31,3.64c1.54,1.58,3.35,3.72,5.07,5.86H67.73c-1.27-1.56-3.06-3.68-4.84-5.57Zm17.4,27.43a1.8,1.8,0,0,1-1.79,1.8H58.44a1.8,1.8,0,0,1-1.79-1.8h0a1.79,1.79,0,0,1,1.79-1.79H78.5a1.79,1.79,0,0,1,1.79,1.79Zm.12-5.69a1.77,1.77,0,0,1-1.78,1.78H61.54a1.78,1.78,0,0,1-1.78-1.78v-.32a1.78,1.78,0,0,1,1.78-1.78H78.63a1.78,1.78,0,0,1,1.78,1.78Zm-2.17-4.48H57.88a2.18,2.18,0,0,1,0-4.36H78.24a2.18,2.18,0,0,1,0,4.36Z"/></g></g></svg>