<svg xmlns="http://www.w3.org/2000/svg" viewBox="0 0 105.29 105.29"><defs><style>.cls-1{fill:none;stroke:#7991a8;stroke-miterlimit:10;stroke-width:4px;}.cls-2{fill:#7991a8;}</style></defs><title>form-16</title><g id="Layer_2" data-name="Layer 2"><g id="Layer_1-2" data-name="Layer 1"><rect class="cls-1" x="2" y="2" width="101.29" height="101.29" rx="11.62"/><path class="cls-2" d="M25.34,39.92H16.82v8.73H11.54V26.74H26.2v4.08H16.82v5h8.52Z"/><path class="cls-2" d="M47,38.14a13,13,0,0,1-1.19,5.68,8.81,8.81,0,0,1-3.38,3.8,9.38,9.38,0,0,1-5,1.33,9.5,9.5,0,0,1-5-1.29A8.68,8.68,0,0,1,29.05,44a12.47,12.47,0,0,1-1.27-5.49V37.26A13,13,0,0,1,29,31.57a8.66,8.66,0,0,1,3.38-3.79,10,10,0,0,1,10,0,9,9,0,0,1,3.39,3.77A12.58,12.58,0,0,1,47,37.14Zm-5.37-.91a9.18,9.18,0,0,0-1.1-5,3.48,3.48,0,0,0-3.12-1.7q-4,0-4.2,6v1.61a9.38,9.38,0,0,0,1.07,5,3.7,3.7,0,0,0,6.26,0,9.22,9.22,0,0,0,1.1-4.89Z"/><path class="cls-2" d="M57.81,40.9H55v7.75H49.67V26.74H58.3a9.57,9.57,0,0,1,6.09,1.73,5.84,5.84,0,0,1,2.2,4.88,7.1,7.1,0,0,1-.93,3.79,6.5,6.5,0,0,1-2.9,2.43l4.58,8.85v.23H61.68ZM55,36.83H58.3A3,3,0,0,0,60.56,36a3,3,0,0,0,.76-2.21,3.11,3.11,0,0,0-.77-2.22,3,3,0,0,0-2.25-.81H55Z"/><path class="cls-2" d="M76.72,26.74,81.61,42l4.87-15.24h7V48.65H88.14V43.53l.51-10.47-5.3,15.59H79.86L74.55,33l.51,10.49v5.12H69.78V26.74Z"/><path class="cls-2" d="M22.54,78.86H19V67.4l-3.54,1V65.71l6.81-2.35h.32Z"/><path class="cls-2" d="M35.88,63.14V66h-.16a5.38,5.38,0,0,0-3.3,1,4,4,0,0,0-1.59,2.68,4.16,4.16,0,0,1,3.06-1.2,3.93,3.93,0,0,1,3.21,1.47,6,6,0,0,1,1.19,3.86,5.47,5.47,0,0,1-.7,2.71,4.89,4.89,0,0,1-2,1.93,5.54,5.54,0,0,1-2.77.7,5.8,5.8,0,0,1-2.95-.75,5.18,5.18,0,0,1-2-2.15A7.13,7.13,0,0,1,27.15,73V71.52a9,9,0,0,1,1-4.3,7.48,7.48,0,0,1,2.93-3,8.43,8.43,0,0,1,4.23-1.08Zm-3.23,8a2.07,2.07,0,0,0-1.2.33,2.11,2.11,0,0,0-.71.81v1.07c0,2,.68,2.94,2,2.94a1.64,1.64,0,0,0,1.37-.73,3.36,3.36,0,0,0,0-3.7A1.78,1.78,0,0,0,32.65,71.15Z"/><path class="cls-2" d="M41.13,80.19H38.59l5.29-16.83h2.55Z"/><path class="cls-2" d="M56,78.86h-3.6V67.41l-3.54,1V65.71l6.81-2.35H56Z"/><path class="cls-2" d="M69.3,63.14V66h-.16a5.38,5.38,0,0,0-3.3,1,4.09,4.09,0,0,0-1.59,2.68,4.17,4.17,0,0,1,3.06-1.19,3.92,3.92,0,0,1,3.21,1.46,6,6,0,0,1,1.19,3.86,5.37,5.37,0,0,1-.7,2.71,4.89,4.89,0,0,1-2,1.93,5.51,5.51,0,0,1-2.77.7,5.8,5.8,0,0,1-3-.75,5.22,5.22,0,0,1-2-2.14A7.21,7.21,0,0,1,60.57,73V71.52a9,9,0,0,1,1-4.3,7.55,7.55,0,0,1,2.93-3,8.43,8.43,0,0,1,4.23-1.08Zm-3.23,8a2.07,2.07,0,0,0-1.2.33,2.2,2.2,0,0,0-.71.81v1.08c0,1.95.68,2.93,2,2.93a1.64,1.64,0,0,0,1.37-.73,3.36,3.36,0,0,0,0-3.7A1.78,1.78,0,0,0,66.07,71.15Z"/><path class="cls-2" d="M85.15,76H80l-.89,2.9h-4l5.68-15.5h3.52l5.72,15.5h-4Zm-4.22-2.88h3.33L82.59,67.7Z"/></g></g></svg>