<svg xmlns="http://www.w3.org/2000/svg" xmlns:xlink="http://www.w3.org/1999/xlink" width="153" height="78" viewBox="0 0 153 78">
  <defs>
    <clipPath id="clip-mastercard">
      <rect width="153" height="78"/>
    </clipPath>
  </defs>
  <g id="mastercard" clip-path="url(#clip-mastercard)">
    <rect width="153" height="78" fill="#fff"/>
    <g id="mastercard-2" data-name="mastercard" transform="translate(43 -81.8)">
      <path id="Path_72" data-name="Path 72" d="M242.165,121.082a20.282,20.282,0,1,1-40.565,0h0a20.282,20.282,0,1,1,40.565,0Z" transform="translate(-174.557 0)" fill="#ffb600"/>
      <path id="Path_73" data-name="Path 73" d="M221.882,100.8a20.335,20.335,0,0,1,20.282,20.282h0a20.282,20.282,0,0,1-40.565,0" transform="translate(-174.557 0)" fill="#f7981d"/>
      <path id="Path_74" data-name="Path 74" d="M352.8,100.8a20.335,20.335,0,0,1,20.282,20.282h0A20.266,20.266,0,0,1,352.8,141.365" transform="translate(-305.474 0)" fill="#ff8500"/>
      <path id="Path_75" data-name="Path 75" d="M20.068,100.8a20.283,20.283,0,0,0,.215,40.565,20.519,20.519,0,0,0,13.629-5.258h0a19.284,19.284,0,0,0,2.039-2.146H31.765a24.755,24.755,0,0,1-1.5-2.039h7.19a13.747,13.747,0,0,0,1.18-2.146H29.082a12.791,12.791,0,0,1-.859-2.146H39.384a21.309,21.309,0,0,0,1.073-6.439,27.7,27.7,0,0,0-.429-4.293H27.58a15.689,15.689,0,0,1,.537-2.146H39.277a12.789,12.789,0,0,0-.859-2.146H28.975a21.279,21.279,0,0,1,1.18-2.146h7.19a10.205,10.205,0,0,0-1.61-2.146H31.765a18.291,18.291,0,0,1,2.039-2.039,19.8,19.8,0,0,0-13.629-5.258C20.175,100.8,20.175,100.8,20.068,100.8Z" transform="translate(0 0)" fill="#ff5050"/>
      <path id="Path_76" data-name="Path 76" d="M0,122.468A20.266,20.266,0,0,0,20.282,142.75a20.519,20.519,0,0,0,13.629-5.258h0a19.284,19.284,0,0,0,2.039-2.146H31.765a24.755,24.755,0,0,1-1.5-2.039h7.19a13.747,13.747,0,0,0,1.18-2.146H29.082a12.79,12.79,0,0,1-.859-2.146H39.384a21.309,21.309,0,0,0,1.073-6.439,27.7,27.7,0,0,0-.429-4.293H27.58a15.689,15.689,0,0,1,.537-2.146H39.277a12.79,12.79,0,0,0-.859-2.146H28.975a21.282,21.282,0,0,1,1.18-2.146h7.19a10.205,10.205,0,0,0-1.61-2.146H31.765a18.29,18.29,0,0,1,2.039-2.039A19.8,19.8,0,0,0,20.175,102.4h-.107" transform="translate(0 -1.385)" fill="#e52836"/>
      <path id="Path_77" data-name="Path 77" d="M149.815,142.75a20.519,20.519,0,0,0,13.629-5.258h0a19.282,19.282,0,0,0,2.039-2.146H161.3a24.758,24.758,0,0,1-1.5-2.039h7.19a13.747,13.747,0,0,0,1.18-2.146h-9.551a12.79,12.79,0,0,1-.859-2.146h11.161a21.309,21.309,0,0,0,1.073-6.439,27.7,27.7,0,0,0-.429-4.293H157.112a15.689,15.689,0,0,1,.537-2.146h11.161a12.793,12.793,0,0,0-.859-2.146h-9.444a21.285,21.285,0,0,1,1.18-2.146h7.19a10.206,10.206,0,0,0-1.61-2.146H161.3a18.289,18.289,0,0,1,2.039-2.039,19.8,19.8,0,0,0-13.629-5.258H149.6" transform="translate(-129.532 -1.385)" fill="#cb2026"/>
      <g id="Group_17" data-name="Group 17" transform="translate(1.932 115.824)">
        <path id="Path_78" data-name="Path 78" d="M184.712,229.444l.322-1.824a4.648,4.648,0,0,1-.537.107c-.751,0-.859-.429-.751-.644l.644-3.756h1.18l.322-2.039h-1.073l.215-1.288h-2.146s-1.288,7.083-1.288,7.941a1.611,1.611,0,0,0,1.717,1.824A3.294,3.294,0,0,0,184.712,229.444Z" transform="translate(-159.171 -219.034)" fill="#fff"/>
        <path id="Path_79" data-name="Path 79" d="M210.4,233.542c0,3,2.039,3.756,3.756,3.756a5.572,5.572,0,0,0,2.254-.322l.429-2.039a6.434,6.434,0,0,1-2.254.537c-2.361,0-1.932-1.717-1.932-1.717h4.4a13.915,13.915,0,0,0,.322-1.932,2.907,2.907,0,0,0-3.112-3.112C212.01,228.5,210.4,230.859,210.4,233.542Zm3.756-3.112c1.18,0,.966,1.4.966,1.5h-2.361C212.761,231.824,212.976,230.429,214.156,230.429Z" transform="translate(-184.108 -226.566)" fill="#fff"/>
        <path id="Path_80" data-name="Path 80" d="M301.9,223.209l.429-2.361a5.274,5.274,0,0,1-1.824.537c-1.5,0-2.146-1.18-2.146-2.468,0-2.576,1.288-3.971,2.79-3.971a3.584,3.584,0,0,1,1.932.644l.322-2.254a7.546,7.546,0,0,0-2.468-.537c-2.468,0-4.936,2.146-4.936,6.224,0,2.683,1.288,4.507,3.863,4.507A9.631,9.631,0,0,0,301.9,223.209Z" transform="translate(-258.225 -212.8)" fill="#fff"/>
        <path id="Path_81" data-name="Path 81" d="M90.478,227.2a7.6,7.6,0,0,0-2.576.429l-.322,1.824a6.343,6.343,0,0,1,2.361-.429c.751,0,1.4.107,1.4.751,0,.429-.107.537-.107.537h-.966c-1.824,0-3.863.751-3.863,3.219,0,1.932,1.288,2.361,2.039,2.361a3.224,3.224,0,0,0,2.254-.966l-.107.858h1.932l.859-5.9A2.543,2.543,0,0,0,90.478,227.2Zm.429,4.829c0,.322-.215,2.039-1.5,2.039a.838.838,0,0,1-.859-.859c0-.537.322-1.288,1.932-1.288A1.692,1.692,0,0,0,90.907,232.029Z" transform="translate(-76.742 -225.268)" fill="#fff"/>
        <path id="Path_82" data-name="Path 82" d="M137.668,235.2c.537,0,3.219.107,3.219-2.79,0-2.683-2.576-2.146-2.576-3.219,0-.537.429-.751,1.18-.751.322,0,1.5.107,1.5.107l.322-1.932a8.152,8.152,0,0,0-2.039-.215c-1.61,0-3.219.644-3.219,2.79,0,2.468,2.683,2.254,2.683,3.219,0,.644-.751.751-1.288.751a7.018,7.018,0,0,1-1.932-.322l-.322,1.932C135.307,234.985,135.844,235.2,137.668,235.2Z" transform="translate(-118.996 -224.576)" fill="#fff"/>
        <path id="Path_83" data-name="Path 83" d="M433.317,214.4l-.429,2.9a2.976,2.976,0,0,0-2.039-1.073c-1.932,0-3.649,2.361-3.649,5.151,0,1.717.859,3.541,2.683,3.541a2.865,2.865,0,0,0,2.039-.859l-.107.751h2.146l1.61-10.3Zm-.966,5.688c0,1.18-.537,2.683-1.717,2.683-.751,0-1.18-.644-1.18-1.717,0-1.717.751-2.79,1.717-2.79C431.922,218.263,432.351,218.8,432.351,220.088Z" transform="translate(-371.826 -214.185)" fill="#fff"/>
        <path id="Path_84" data-name="Path 84" d="M16.439,224.7l1.288-7.727.215,7.727h1.5l2.79-7.727-1.18,7.727h2.254l1.717-10.3H21.483l-2.146,6.332-.107-6.332H16.117L14.4,224.7Z" transform="translate(-14.4 -214.185)" fill="#fff"/>
        <path id="Path_85" data-name="Path 85" d="M262.361,237.171c.644-3.541.751-6.439,2.254-5.9a8.421,8.421,0,0,1,.751-2.468h-.429c-.966,0-1.717,1.288-1.717,1.288l.215-1.18H261.4l-1.4,8.37h2.361Z" transform="translate(-227.054 -226.654)" fill="#fff"/>
        <path id="Path_86" data-name="Path 86" d="M350.478,227.2a7.6,7.6,0,0,0-2.576.429l-.322,1.824a6.343,6.343,0,0,1,2.361-.429c.751,0,1.4.107,1.4.751,0,.429-.107.537-.107.537h-.966c-1.824,0-3.863.751-3.863,3.219,0,1.932,1.288,2.361,2.039,2.361a3.224,3.224,0,0,0,2.254-.966l-.107.858h1.932l.859-5.9C353.483,227.307,351.229,227.2,350.478,227.2Zm.537,4.829c0,.322-.215,2.039-1.5,2.039a.838.838,0,0,1-.859-.859c0-.537.322-1.288,1.932-1.288C350.907,232.029,350.907,232.029,351.015,232.029Z" transform="translate(-301.864 -225.268)" fill="#fff"/>
        <path id="Path_87" data-name="Path 87" d="M396.761,237.171c.644-3.541.751-6.439,2.254-5.9a8.42,8.42,0,0,1,.751-2.468h-.429c-.966,0-1.717,1.288-1.717,1.288l.215-1.18H395.8l-1.4,8.37h2.361Z" transform="translate(-343.426 -226.654)" fill="#fff"/>
      </g>
      <g id="Group_18" data-name="Group 18" transform="translate(1.932 115.824)">
        <path id="Path_88" data-name="Path 88" d="M180,227.941a1.611,1.611,0,0,0,1.717,1.824,4.085,4.085,0,0,0,1.61-.322l.322-1.824a4.647,4.647,0,0,1-.537.107c-.751,0-.859-.429-.751-.644l.644-3.756h1.18l.322-2.039h-1.073l.215-1.288" transform="translate(-157.786 -219.034)" fill="#dce5e5"/>
        <path id="Path_89" data-name="Path 89" d="M218.4,233.542c0,3,.966,3.756,2.683,3.756a5.572,5.572,0,0,0,2.254-.322l.429-2.039a6.433,6.433,0,0,1-2.254.537c-2.361,0-1.932-1.717-1.932-1.717h4.4a13.914,13.914,0,0,0,.322-1.932,2.908,2.908,0,0,0-3.112-3.112C218.937,228.5,218.4,230.859,218.4,233.542Zm2.683-3.112c1.18,0,1.4,1.4,1.4,1.5h-2.79C219.688,231.824,219.9,230.429,221.083,230.429Z" transform="translate(-191.035 -226.566)" fill="#dce5e5"/>
        <path id="Path_90" data-name="Path 90" d="M308.829,223.209l.429-2.361a5.274,5.274,0,0,1-1.824.537c-1.5,0-2.146-1.18-2.146-2.468,0-2.576,1.288-3.971,2.79-3.971a3.584,3.584,0,0,1,1.932.644l.322-2.254a7.546,7.546,0,0,0-2.468-.537c-2.468,0-3.863,2.146-3.863,6.224,0,2.683.215,4.507,2.79,4.507A9.631,9.631,0,0,0,308.829,223.209Z" transform="translate(-265.152 -212.8)" fill="#dce5e5"/>
        <path id="Path_91" data-name="Path 91" d="M87.58,230.946a6.343,6.343,0,0,1,2.361-.429c.751,0,1.4.107,1.4.751,0,.429-.107.537-.107.537h-.966c-1.824,0-3.863.751-3.863,3.219,0,1.932,1.288,2.361,2.039,2.361a3.224,3.224,0,0,0,2.254-.966l-.107.858h1.932l.859-5.9c0-2.468-2.146-2.576-3-2.576m1.61,4.615a3.513,3.513,0,0,1-2.576,2.039.838.838,0,0,1-.859-.859c0-.537.322-1.288,1.932-1.288A8.768,8.768,0,0,0,91.98,233.415Z" transform="translate(-76.742 -226.654)" fill="#dce5e5"/>
        <path id="Path_92" data-name="Path 92" d="M136,234.985a9.082,9.082,0,0,0,2.468.215c.537,0,3.219.107,3.219-2.79,0-2.683-2.576-2.146-2.576-3.219,0-.537.429-.751,1.18-.751.322,0,1.5.107,1.5.107l.322-1.932a8.152,8.152,0,0,0-2.039-.215c-1.61,0-2.146.644-2.146,2.79,0,2.468,1.61,2.254,1.61,3.219,0,.644-.751.751-1.288.751" transform="translate(-119.688 -224.576)" fill="#dce5e5"/>
        <path id="Path_93" data-name="Path 93" d="M439.764,217.99a2.976,2.976,0,0,0-2.039-1.073c-1.932,0-2.576,2.361-2.576,5.151,0,1.717-.215,3.541,1.61,3.541a2.865,2.865,0,0,0,2.039-.859l-.107.751h2.146l1.61-10.3m-2.79,5.58c0,1.18-.966,2.683-2.146,2.683-.751,0-1.18-.644-1.18-1.717,0-1.717.751-2.79,1.717-2.79A1.64,1.64,0,0,1,439.657,220.78Z" transform="translate(-378.702 -214.878)" fill="#dce5e5"/>
        <path id="Path_94" data-name="Path 94" d="M16.439,224.7l1.288-7.727.215,7.727h1.5l2.79-7.727-1.18,7.727h2.254l1.717-10.3H22.341l-3,6.332-.107-6.332h-1.18L14.4,224.7Z" transform="translate(-14.4 -214.185)" fill="#dce5e5"/>
        <path id="Path_95" data-name="Path 95" d="M260.8,237.171h2.254c.644-3.541.751-6.439,2.254-5.9a8.42,8.42,0,0,1,.751-2.468h-.429c-.966,0-1.717,1.288-1.717,1.288l.215-1.18" transform="translate(-227.747 -226.654)" fill="#dce5e5"/>
        <path id="Path_96" data-name="Path 96" d="M347.58,230.946a6.343,6.343,0,0,1,2.361-.429c.751,0,1.4.107,1.4.751,0,.429-.107.537-.107.537h-.966c-1.824,0-3.863.751-3.863,3.219,0,1.932,1.288,2.361,2.039,2.361a3.224,3.224,0,0,0,2.254-.966l-.107.858h1.932l.859-5.9c0-2.468-2.146-2.576-3-2.576m1.61,4.615a3.513,3.513,0,0,1-2.576,2.039.838.838,0,0,1-.859-.859c0-.537.322-1.288,1.932-1.288A9.442,9.442,0,0,0,351.98,233.415Z" transform="translate(-301.865 -226.654)" fill="#dce5e5"/>
        <path id="Path_97" data-name="Path 97" d="M395.2,237.171h2.254c.644-3.541.751-6.439,2.254-5.9a8.42,8.42,0,0,1,.751-2.468h-.429c-.966,0-1.717,1.288-1.717,1.288l.215-1.18" transform="translate(-344.118 -226.654)" fill="#dce5e5"/>
      </g>
    </g>
  </g>
</svg>
