<svg xmlns="http://www.w3.org/2000/svg" viewBox="0 0 153.53 78.71"><defs><style>.cls-1{fill:#fff;}.cls-2{fill:#001f78;}.cls-3{fill:#e00;}.cls-4{fill:none;stroke:#e00;stroke-miterlimit:10;}</style></defs><title>net-banking_2</title><g id="Layer_2" data-name="Layer 2"><g id="Layer_1-2" data-name="Layer 1"><rect class="cls-1" width="153.53" height="78.71"/><rect class="cls-2" x="31.16" y="20.61" width="116.4" height="38.27"/><path class="cls-2" d="M18.38,45.15h8.39v-2.5a4.44,4.44,0,0,0-4.44-4.44H18.38Z"/><path class="cls-3" d="M17.57,45.15V38.21H14.34A4.44,4.44,0,0,0,9.9,42.65v2.5Z"/><path class="cls-3" d="M9.9,46v8a4.44,4.44,0,0,0,4.44,4.44h8A4.44,4.44,0,0,0,26.77,54V46Z"/><path class="cls-4" d="M8.8,19.61s-3.38,6.94-2,10.12,4.78,2.93,7.29,3.15,3.9,1.4,3.9,4.87"/><path class="cls-1" d="M37.77,46.08V33.21h3.4l2.67,4.72A36.44,36.44,0,0,1,46,42.34h0A48,48,0,0,1,45.75,37V33.21h2.68V46.08H45.37l-2.75-5a47.83,47.83,0,0,1-2.23-4.54l-.06,0c.08,1.7.12,3.51.12,5.61v3.88Z"/><path class="cls-1" d="M53,42.34c.1,1.2,1.28,1.77,2.64,1.77a8.23,8.23,0,0,0,2.58-.38l.38,2a9.24,9.24,0,0,1-3.38.57c-3.17,0-5-1.83-5-4.75,0-2.37,1.47-5,4.71-5,3,0,4.17,2.35,4.17,4.66a6.61,6.61,0,0,1-.1,1.15Zm3.42-2a1.68,1.68,0,0,0-1.64-1.89A1.9,1.9,0,0,0,53,40.35Z"/><path class="cls-1" d="M64.13,34.07v2.67h2.08v2.14H64.13v3.38c0,1.13.27,1.64,1.15,1.64a5.81,5.81,0,0,0,.86-.07l0,2.19a5.75,5.75,0,0,1-1.89.25,3.05,3.05,0,0,1-2.18-.8,3.9,3.9,0,0,1-.8-2.77V38.88H60.05V36.74h1.24v-2Z"/><path class="cls-1" d="M71.85,33.38a23.5,23.5,0,0,1,3.76-.27,7,7,0,0,1,3.8.73A2.8,2.8,0,0,1,81,36.36a2.92,2.92,0,0,1-2.12,2.75v0a3.22,3.22,0,0,1,2.56,3.17,3.44,3.44,0,0,1-1.34,2.73c-.93.74-2.5,1.16-5.06,1.16A21.88,21.88,0,0,1,71.85,46Zm2.88,4.93h1c1.53,0,2.35-.63,2.35-1.59s-.75-1.49-2.06-1.49a7.75,7.75,0,0,0-1.25.08Zm0,5.71c.29,0,.64,0,1.13,0,1.32,0,2.48-.49,2.48-1.85s-1.16-1.81-2.61-1.81h-1Z"/><path class="cls-1" d="M88.66,46.08l-.17-.94h-.06a3.35,3.35,0,0,1-2.67,1.15,2.87,2.87,0,0,1-3-2.87c0-2.42,2.18-3.59,5.48-3.57v-.13c0-.5-.27-1.2-1.7-1.2a5.29,5.29,0,0,0-2.58.7l-.53-1.87A7.75,7.75,0,0,1,87,36.53c3.11,0,4.1,1.83,4.1,4v3.25a13.89,13.89,0,0,0,.14,2.27Zm-.34-4.41c-1.53,0-2.72.34-2.72,1.47a1,1,0,0,0,1.15,1.1,1.58,1.58,0,0,0,1.51-1.06,2.07,2.07,0,0,0,.06-.5Z"/><path class="cls-1" d="M93.44,39.72c0-1.17,0-2.16-.08-3h2.52L96,38h0A3.43,3.43,0,0,1,99,36.53c1.91,0,3.34,1.26,3.34,4v5.54H99.4V40.9c0-1.2-.42-2-1.48-2A1.55,1.55,0,0,0,96.45,40a2.14,2.14,0,0,0-.11.72v5.39h-2.9Z"/><path class="cls-1" d="M107.53,40.67h0c.21-.38.44-.76.67-1.12l1.89-2.81h3.5l-3.35,3.78,3.82,5.56h-3.57l-2.25-3.84-.75.92v2.92h-2.9V32.52h2.9Z"/><path class="cls-1" d="M118.17,34.14a1.45,1.45,0,0,1-1.56,1.45,1.46,1.46,0,1,1,0-2.92A1.45,1.45,0,0,1,118.17,34.14Zm-3,11.94V36.74h2.9v9.34Z"/><path class="cls-1" d="M120.41,39.72c0-1.17,0-2.16-.08-3h2.52L123,38h.06a3.41,3.41,0,0,1,2.88-1.49c1.91,0,3.34,1.26,3.34,4v5.54h-2.9V40.9c0-1.2-.42-2-1.47-2A1.54,1.54,0,0,0,123.43,40a1.9,1.9,0,0,0-.12.72v5.39h-2.9Z"/><path class="cls-1" d="M140.52,36.74c0,.59-.07,1.38-.07,2.77v5.21c0,1.8-.37,3.27-1.42,4.2a5.74,5.74,0,0,1-3.8,1.15,7.25,7.25,0,0,1-3.36-.73l.58-2.19a5.77,5.77,0,0,0,2.71.7,2.22,2.22,0,0,0,2.42-2.46v-.61h0A3,3,0,0,1,135,46c-2.31,0-4-1.87-4-4.56,0-3,2-4.91,4.24-4.91a2.81,2.81,0,0,1,2.56,1.32h0l.09-1.11Zm-3,3.8a2.81,2.81,0,0,0,0-.53,1.59,1.59,0,0,0-1.57-1.28c-1,0-1.91,1-1.91,2.65,0,1.4.69,2.48,1.91,2.48a1.57,1.57,0,0,0,1.53-1.18,2.69,2.69,0,0,0,.09-.76Z"/></g></g></svg>