<?xml version="1.0" encoding="utf-8"?>
<!-- Generator: Adobe Illustrator 21.0.2, SVG Export Plug-In . SVG Version: 6.00 Build 0)  -->
<svg version="1.1" id="Layer_3" xmlns="http://www.w3.org/2000/svg" xmlns:xlink="http://www.w3.org/1999/xlink" x="0px" y="0px"
	 viewBox="0 0 512 512" style="enable-background:new 0 0 512 512;" xml:space="preserve">
<style type="text/css">
	.st0{fill:#7991A8;}
</style>
<g>
	<path class="st0" d="M496,184c4.4,0,8-3.6,8-8V48c0-4.4-3.6-8-8-8h-8V16c0-4.4-3.6-8-8-8H32c-4.4,0-8,3.6-8,8v24h-8
		c-4.4,0-8,3.6-8,8v128c0,4.4,3.6,8,8,8h8v272h-8c-4.4,0-8,3.6-8,8v32c0,4.4,3.6,8,8,8h480c4.4,0,8-3.6,8-8v-32c0-4.4-3.6-8-8-8h-8
		V184H496z M40,24h432v16H40V24z M24,56h464v112H24V56z M472,264h-96v-48h96V264z M360,264h-96v-48h96V264z M248,264h-96v-48h96V264
		z M136,264H40v-48h96V264z M488,488H24v-16h464V488z M280,456h-16V336c0-4.4-3.6-8-8-8H96c-4.4,0-8,3.6-8,8v120H72V312h208V456z
		 M104,456V344h64v112H104z M184,344h64v112h-64V344z M440,456h-96V312h96V456z M456,456V304c0-4.4-3.6-8-8-8H336c-4.4,0-8,3.6-8,8
		v152h-32V304c0-4.4-3.6-8-8-8H64c-4.4,0-8,3.6-8,8v152H40V280h432v176H456z M472,200H40v-16h432V200z"/>
	<path class="st0" d="M152,72h-32c-4.4,0-8,3.6-8,8v64c0,4.4,3.6,8,8,8h32c13.2,0,24-10.8,24-24c0-6.1-2.3-11.8-6.1-16
		c3.8-4.2,6.1-9.9,6.1-16C176,82.8,165.2,72,152,72z M152,136h-24v-16h24c4.4,0,8,3.6,8,8C160,132.4,156.4,136,152,136z M152,104
		h-24V88h24c4.4,0,8,3.6,8,8S156.4,104,152,104z"/>
	<path class="st0" d="M224,72c-17.6,0-32,14.4-32,32v48h16v-24h32v24h16v-48C256,86.4,241.6,72,224,72z M208,112v-8
		c0-8.8,7.2-16,16-16s16,7.2,16,16v8H208z"/>
	<path class="st0" d="M320,120l-33.6-44.8c-2.1-2.8-5.6-3.9-8.9-2.8c-3.3,1.1-5.5,4.1-5.5,7.6v72h16v-48l33.6,44.8
		c1.5,2,3.9,3.2,6.4,3.2c0.8,0,1.7-0.1,2.5-0.4c3.3-1.1,5.5-4.1,5.5-7.6V72h-16V120z"/>
	<path class="st0" d="M400,72h-16c0,11.3-6.1,21.5-16,27V72h-16v80h16v-27c9.9,5.4,16,15.6,16,27h16c0-16.6-8.6-31.6-22.7-40
		C391.4,103.6,400,88.6,400,72z"/>
	<path class="st0" d="M368,392h48c4.4,0,8-3.6,8-8v-48c0-4.4-3.6-8-8-8h-48c-4.4,0-8,3.6-8,8v48C360,388.4,363.6,392,368,392z
		 M376,344h32v32h-32V344z"/>
</g>
</svg>
