<svg xmlns="http://www.w3.org/2000/svg" viewBox="0 0 105.29 105.29"><defs><style>.cls-1{fill:none;stroke:#7991a8;stroke-miterlimit:10;stroke-width:4px;}.cls-2{fill:#7991a8;}</style></defs><title>pan_1</title><g id="Layer_2" data-name="Layer 2"><g id="Layer_1-2" data-name="Layer 1"><rect class="cls-1" x="2" y="2" width="101.29" height="101.29" rx="11.62"/><path class="cls-2" d="M18.59,64.69a48.68,48.68,0,0,1,8.09-.55c3.69,0,6.32.7,8.08,2.12a7.73,7.73,0,0,1,2.83,6.12,8.42,8.42,0,0,1-2.43,6.28c-2,1.93-5.07,2.79-8.6,2.79a13.34,13.34,0,0,1-2-.12V90.8h-6Zm5.93,12a9,9,0,0,0,2,.16c3.18,0,5.14-1.61,5.14-4.32,0-2.43-1.69-3.89-4.67-3.89a10.25,10.25,0,0,0-2.47.24Z"/><path class="cls-2" d="M45.21,84l-1.89,6.8h-6.2l8.09-26.47h7.85l8.2,26.47H54.83l-2-6.8Zm6.71-4.47-1.65-5.62c-.47-1.57-.94-3.53-1.33-5.1h-.08c-.4,1.57-.79,3.57-1.22,5.1l-1.57,5.62Z"/><path class="cls-2" d="M64.79,90.8V64.33h7l5.5,9.7A78.34,78.34,0,0,1,81.6,83.1h.12a96.21,96.21,0,0,1-.51-11V64.33H86.7V90.8H80.42L74.77,80.59a97.59,97.59,0,0,1-4.6-9.35h-.11c.15,3.5.23,7.23.23,11.55v8Z"/><path class="cls-2" d="M69.86,46.27,69,42.83a5,5,0,0,0-3.28-3.57l-6.32-2.1c-1.54-.64-2.25-3.13-2.4-4.07a6,6,0,0,0,2.11-3.88,1.13,1.13,0,0,1,.17-.74.77.77,0,0,0,.5-.43,10.94,10.94,0,0,0,.77-3.14.49.49,0,0,0,0-.17,1.83,1.83,0,0,0-.69-1.05V19.87c0-2.31-.71-3.26-1.45-3.81-.15-1.12-1.34-3.37-5.73-3.37a7.5,7.5,0,0,0-7.19,7.18v3.81a1.88,1.88,0,0,0-.69,1.05.25.25,0,0,0,0,.17,10.37,10.37,0,0,0,.72,3.1.59.59,0,0,0,.43.41c.08,0,.23.25.23.76A6,6,0,0,0,48.3,33.1c-.15.94-.85,3.42-2.35,4l-6.38,2.11a5,5,0,0,0-3.28,3.56l-.86,3.45a.73.73,0,0,0,.52.87H69.13a.72.72,0,0,0,.72-.72h0A.34.34,0,0,0,69.86,46.27Z"/></g></g></svg>