<?xml version="1.0" encoding="utf-8"?>
<!-- Generator: Adobe Illustrator 16.0.0, SVG Export Plug-In . SVG Version: 6.00 Build 0)  -->
<!DOCTYPE svg PUBLIC "-//W3C//DTD SVG 1.1//EN" "http://www.w3.org/Graphics/SVG/1.1/DTD/svg11.dtd">
<svg version="1.1" id="Layer_1" xmlns="http://www.w3.org/2000/svg" xmlns:xlink="http://www.w3.org/1999/xlink" x="0px" y="0px"
	 width="389.245px" height="121.5px" viewBox="0 0 389.245 121.5" enable-background="new 0 0 389.245 121.5" xml:space="preserve">
<g>
	<path fill-rule="evenodd" clip-rule="evenodd" fill="#1E398D" d="M0.364,23.839c0.007-2.713,1.834-4.068,4.076-4.068h39.718
		c12.19,1.385,20.7,7.588,21.535,23.9v22.064c0,3.277-0.192,6.039-1.139,9.225c-3.159,10.621-10.751,15.898-22.095,16.641H25.426
		c0,9.002,0,17.998,0,27.006c0,2.029-1.703,3.043-3.77,3.043c-5.965,0-11.926,0-17.883,0c-2.181,0-3.78-1.215-3.773-3.648
		L0.364,23.839L0.364,23.839z M25.604,44.808h10.573c2.374,0,4.33,1.945,4.33,4.332v12.748c0,2.383-1.956,4.34-4.33,4.34H25.604
		V44.808L25.604,44.808z"/>
	<path fill-rule="evenodd" clip-rule="evenodd" fill="#1E398D" d="M85.265,19.888h27.76c16.249,0.945,25.044,9.477,24.815,27.172
		v65.508c0,5.084-5.129,8.932-9.516,8.932H91.937c-11.044,0-18.333-8.604-20.153-17.041c-1.738-8.104-0.443-17.904-0.443-26.18
		c0-12.771,8.467-25.436,22.563-25.436h14.814c4.308-0.229,4.116-9.646,0-9.314H85.565c-2.345,0-3.991-1.248-4.212-3.637
		c0-5.723,0-11.434,0-17.158C81.353,20.542,83.163,19.888,85.265,19.888L85.265,19.888z M100.568,76.531h8.474
		c1.995,0,3.634,1.635,3.634,3.641v14.748c0,2.008-1.639,3.648-3.634,3.648h-8.474c-1.996,0-3.623-1.641-3.623-3.648V80.171
		C96.945,78.166,98.572,76.531,100.568,76.531L100.568,76.531z"/>
	<path fill-rule="evenodd" clip-rule="evenodd" fill="#1E398D" d="M146.361,24.507v41.379c1.003,12.979,12.647,22.688,25.319,22.688
		h11.722c4.848,0,4.548,8.146,0,8.146h-25.358c-2.745,0-3.745,1.434-3.745,3.861V118.8c0,1.836,1.481,3.213,3.423,3.213h23.491
		c19.593,0,30.751-9.402,30.744-30.469V22.902c0-2.238-1.42-3.109-2.777-3.109h-19.689c-1.821,0-2.884,1.973-2.884,3.42v37.619
		c0,1.613-0.899,2.563-2.349,2.563h-9.32c-2.142,0-3.316-1.164-3.316-3.213v-36.32c0-2.406-0.967-4.176-3.627-4.176
		c-6.307,0-12.629,0-18.94,0C146.904,19.685,146.361,21.82,146.361,24.507L146.361,24.507z"/>
	<path fill-rule="evenodd" clip-rule="evenodd" fill="#00AEEF" d="M221.86,41.517V23.623c0-1.92,1.578-3.494,3.491-3.494h4.305
		c11.102-2.314,13.736-8.82,20.525-16.135c4.169-4.519,7.832-5.708,10.523-0.918v17.053h10.173c1.92,0,3.491,1.574,3.491,3.494
		v17.895c0,1.912-1.578,3.49-3.491,3.49h-10.181v73.322c0,1.928-1.57,3.49-3.484,3.49h-17.904c-1.914,0-3.484-1.563-3.484-3.49
		V45.007h-10.473C223.445,45.007,221.86,43.437,221.86,41.517L221.86,41.517z"/>
	<path fill-rule="evenodd" clip-rule="evenodd" fill="#00AEEF" d="M348.622,117.158c0,2.385-1.97,4.342-4.369,4.342h-16.755
		c-2.413,0-4.376-1.957-4.376-4.342V65.037V49.865c0.128-7.277-14.528-8.406-14.528,0v67.293c0,2.385-1.963,4.342-4.369,4.342
		h-16.748c-2.406,0-4.383-1.957-4.383-4.342V23.857c0-2.402,1.978-4.354,4.383-4.354h16.748c2.406,0,4.369,1.951,4.369,4.354v1.285
		c9.802-9.373,26.779-7.891,35.817,1.85c17.005-19.508,46.14-2.131,44.791,19.262c0,23.645-0.207,47.061-0.207,70.904
		c0,2.385-1.978,4.342-4.369,4.342h-16.763c-2.406,0-4.369-1.957-4.369-4.342c0-22.588,0-44.646,0-66.85
		c-0.957-9.334-15.056-7.15-15.042,0C348.45,72.525,348.622,94.742,348.622,117.158L348.622,117.158z"/>
</g>
</svg>
