<svg xmlns="http://www.w3.org/2000/svg" viewBox="0 0 105 105"><defs><style>.cls-1{fill:none;stroke:#7991a8;stroke-miterlimit:10;stroke-width:4px;}.cls-2{fill:#7991a8;}</style></defs><title>phone_email_1</title><g id="Layer_2" data-name="Layer 2"><g id="Layer_1-2" data-name="Layer 1"><path class="cls-1" d="M91.4,103H13.6A11.62,11.62,0,0,1,2,91.4V13.6A11.62,11.62,0,0,1,13.6,2H91.4A11.62,11.62,0,0,1,103,13.6V91.4A11.62,11.62,0,0,1,91.4,103Z"/><path class="cls-2" d="M89.81,37.94l-14.07,14,14.07,14a4.09,4.09,0,0,0,.41-1.75V39.68A4.08,4.08,0,0,0,89.81,37.94Z"/><path class="cls-2" d="M86.14,35.61H47.92a4,4,0,0,0-1.75.41l18,17.88a4.07,4.07,0,0,0,5.76,0L87.89,36A4,4,0,0,0,86.14,35.61Z"/><path class="cls-2" d="M44.25,37.94a3.94,3.94,0,0,0-.41,1.74V64.14a4,4,0,0,0,.41,1.75l14.06-14Z"/><path class="cls-2" d="M73.82,53.83l-2,2a6.79,6.79,0,0,1-9.6,0l-2-2-14.06,14a4.09,4.09,0,0,0,1.75.41H86.14a4.09,4.09,0,0,0,1.75-.41Z"/><path class="cls-2" d="M57.05,72.31v.07a4.29,4.29,0,0,1-4.3,4.3H28.09a4.29,4.29,0,0,1-4.3-4.3V30.51a4.29,4.29,0,0,1,4.3-4.29H52.76a4.3,4.3,0,0,1,4.3,4.29v1.88h5.21V25.24a6.57,6.57,0,0,0-1.93-4.64h0a6.6,6.6,0,0,0-4.65-1.93H25.15a6.59,6.59,0,0,0-6.57,6.57V81.42A6.59,6.59,0,0,0,25.15,88H55.7a6.59,6.59,0,0,0,6.57-6.58V72.31ZM40.42,83.54a1.78,1.78,0,1,1,1.78-1.78A1.78,1.78,0,0,1,40.42,83.54Z"/></g></g></svg>