<svg xmlns="http://www.w3.org/2000/svg" viewBox="0 0 153.53 78.88"><defs><style>.cls-1{fill:#fff;}.cls-2{fill:#bcbec0;}.cls-3{fill:#a4bd00;}.cls-4{fill:#95af00;}</style></defs><title>ssl_1</title><g id="Layer_2" data-name="Layer 2"><g id="Layer_1-2" data-name="Layer 1"><rect class="cls-1" y="0.18" width="153.53" height="78.71"/><rect class="cls-2" x="66.85" width="86.65" height="78.88"/><path class="cls-1" d="M82.51,38.73a14.61,14.61,0,0,0,6.32,1.57c2.61,0,4-1.09,4-2.73S91.63,35.1,88.6,34c-4.18-1.46-6.91-3.78-6.91-7.44,0-4.3,3.59-7.59,9.53-7.59a15.51,15.51,0,0,1,6.43,1.27l-1.27,4.6a11.94,11.94,0,0,0-5.27-1.2c-2.47,0-3.67,1.12-3.67,2.43,0,1.61,1.42,2.32,4.68,3.55,4.44,1.65,6.54,4,6.54,7.52,0,4.22-3.25,7.81-10.17,7.81a16.56,16.56,0,0,1-7.14-1.53Z"/><path class="cls-1" d="M102.69,38.73A14.65,14.65,0,0,0,109,40.3c2.62,0,4-1.09,4-2.73s-1.19-2.47-4.22-3.55c-4.19-1.46-6.92-3.78-6.92-7.44,0-4.3,3.59-7.59,9.53-7.59a15.43,15.43,0,0,1,6.43,1.27l-1.27,4.6a11.9,11.9,0,0,0-5.27-1.2c-2.47,0-3.66,1.12-3.66,2.43,0,1.61,1.42,2.32,4.67,3.55,4.45,1.65,6.54,4,6.54,7.52,0,4.22-3.25,7.81-10.16,7.81a16.65,16.65,0,0,1-7.15-1.53Z"/><path class="cls-1" d="M122.69,19.4h5.72V39.81h10V44.6H122.69Z"/><path class="cls-1" d="M87.81,57.11h-3V59h3.32v1.5H83V52.45h5V54H84.83v1.67h3Z"/><path class="cls-1" d="M89.35,56.54c0-.74,0-1.36,0-1.88h1.58l.08.81h0a2.15,2.15,0,0,1,1.81-.94c1.2,0,2.1.79,2.1,2.52v3.48H93.09V57.28c0-.76-.27-1.27-.93-1.27a1,1,0,0,0-.92.68,1.24,1.24,0,0,0-.07.46v3.38H89.35Z"/><path class="cls-1" d="M100.78,60.39a4.55,4.55,0,0,1-1.63.26,2.84,2.84,0,0,1-3.11-3,3.07,3.07,0,0,1,3.36-3.12,4.31,4.31,0,0,1,1.39.23l-.29,1.36a2.41,2.41,0,0,0-1-.18,1.64,1.64,0,0,0,0,3.28,2.74,2.74,0,0,0,1-.18Z"/><path class="cls-1" d="M101.79,56.6c0-.87,0-1.43-.05-1.94h1.57l.06,1.08h0A1.72,1.72,0,0,1,105,54.53a1.54,1.54,0,0,1,.39,0v1.71a3,3,0,0,0-.49-.05,1.17,1.17,0,0,0-1.25.93,1.7,1.7,0,0,0,0,.4v3h-1.82Z"/><path class="cls-1" d="M107.93,54.66l.88,2.88c.09.35.21.78.29,1.09h0c.09-.31.18-.75.27-1.09l.71-2.88h2l-1.37,3.87c-.84,2.32-1.4,3.26-2.06,3.85a3.39,3.39,0,0,1-1.76.8l-.39-1.55a2.08,2.08,0,0,0,.79-.31,2,2,0,0,0,.76-.73.5.5,0,0,0,.1-.26.71.71,0,0,0-.09-.3l-2.15-5.37Z"/><path class="cls-1" d="M112.84,56.63c0-.77,0-1.43,0-2h1.59l.08.82h0a2.28,2.28,0,0,1,2-.95c1.28,0,2.43,1.12,2.43,3,0,2.13-1.35,3.14-2.66,3.14a1.82,1.82,0,0,1-1.52-.67h0V62.9h-1.82ZM114.66,58a2,2,0,0,0,0,.38,1.1,1.1,0,0,0,1.07.87c.79,0,1.26-.66,1.26-1.66S116.61,56,115.79,56a1.14,1.14,0,0,0-1.09.92,1.75,1.75,0,0,0,0,.33Z"/><path class="cls-1" d="M122.06,53v1.67h1.3V56h-1.3v2.12c0,.71.16,1,.72,1a2.61,2.61,0,0,0,.54,0v1.38a3.45,3.45,0,0,1-1.19.16,1.9,1.9,0,0,1-1.37-.5,2.48,2.48,0,0,1-.5-1.74V56h-.78V54.66h.78V53.39Z"/><path class="cls-1" d="M126.3,53a.92.92,0,0,1-1,.92.92.92,0,1,1,0-1.84A.91.91,0,0,1,126.3,53Zm-1.88,7.5V54.66h1.82v5.87Z"/><path class="cls-1" d="M133.5,57.53a2.94,2.94,0,0,1-3.09,3.13,2.88,2.88,0,0,1-3-3,2.93,2.93,0,0,1,3.13-3.11A2.86,2.86,0,0,1,133.5,57.53Zm-4.24.06c0,1,.42,1.76,1.19,1.76s1.17-.7,1.17-1.76c0-.87-.34-1.76-1.17-1.76S129.26,56.73,129.26,57.59Z"/><path class="cls-1" d="M134.63,56.54c0-.74,0-1.36,0-1.88h1.59l.08.81h0a2.15,2.15,0,0,1,1.81-.94c1.2,0,2.1.79,2.1,2.52v3.48h-1.83V57.28c0-.76-.26-1.27-.92-1.27a1,1,0,0,0-.92.68,1.24,1.24,0,0,0-.07.46v3.38h-1.83Z"/><path class="cls-3" d="M39.69,44.33,32.8,51.22l-3.24-3a1.2,1.2,0,0,0-1.69.06A1.22,1.22,0,0,0,28,50L32,53.73a1.17,1.17,0,0,0,1.66,0l7.71-7.65a1.19,1.19,0,0,0,0-1.72A1.21,1.21,0,0,0,39.69,44.33Z"/><path class="cls-4" d="M51.2,29.7H48.34V24a14.29,14.29,0,0,0-28.58,0V29.7H16.9a5.71,5.71,0,0,0-5.71,5.71V64a5.72,5.72,0,0,0,5.71,5.72H51.2A5.72,5.72,0,0,0,56.91,64V35.41A5.71,5.71,0,0,0,51.2,29.7ZM25.19,24a8.86,8.86,0,0,1,17.72,0V29.7H25.19Zm9.48,37.31A12.07,12.07,0,1,1,46.74,49.23,12.07,12.07,0,0,1,34.67,61.29Z"/><path class="cls-2" d="M42.89,29.77h5.43V24a14.29,14.29,0,1,0-28.57,0v5.75h5.43m0-5.75a8.86,8.86,0,1,1,17.71,0v5.75H25.18Z"/></g></g></svg>