<svg xmlns="http://www.w3.org/2000/svg" xmlns:xlink="http://www.w3.org/1999/xlink" width="153" height="78" viewBox="0 0 153 78">
  <defs>
    <clipPath id="clip-visa">
      <rect width="153" height="78"/>
    </clipPath>
  </defs>
  <g id="visa" clip-path="url(#clip-visa)">
    <rect width="153" height="78" fill="#fff"/>
    <g id="visa-2" data-name="visa" transform="translate(19 -154.6)">
      <path id="Path_124" data-name="Path 124" d="M184.8,213.4l5.867-33h9.167l-5.684,33Z" transform="translate(-142.447 -3.7)" fill="#3c58bf"/>
      <path id="Path_125" data-name="Path 125" d="M184.8,213.4l7.517-33h7.517l-5.684,33Z" transform="translate(-142.447 -3.7)" fill="#293688"/>
      <path id="Path_126" data-name="Path 126" d="M276.052,177.067a23.255,23.255,0,0,0-8.434-1.467c-9.167,0-15.768,4.584-15.768,11.184,0,4.95,4.584,7.517,8.251,9.167s4.767,2.75,4.767,4.217c0,2.2-2.934,3.3-5.5,3.3a19.929,19.929,0,0,1-8.8-1.833l-1.283-.55L248,208.6a29.728,29.728,0,0,0,10.451,1.833c9.717,0,16.134-4.584,16.134-11.551,0-3.85-2.383-6.784-7.884-9.167-3.3-1.65-5.317-2.567-5.317-4.217,0-1.467,1.65-2.934,5.317-2.934a16.816,16.816,0,0,1,6.967,1.283l.917.367,1.467-7.15Z" transform="translate(-191.163 0)" fill="#3c58bf"/>
      <path id="Path_127" data-name="Path 127" d="M276.052,177.067a23.255,23.255,0,0,0-8.434-1.467c-9.167,0-14.118,4.584-14.118,11.184,0,4.95,2.934,7.517,6.6,9.167s4.767,2.75,4.767,4.217c0,2.2-2.934,3.3-5.5,3.3a19.929,19.929,0,0,1-8.8-1.833l-1.283-.55L248,208.6a29.728,29.728,0,0,0,10.451,1.833c9.717,0,16.134-4.584,16.134-11.551,0-3.85-2.383-6.784-7.884-9.167-3.3-1.65-5.317-2.567-5.317-4.217,0-1.467,1.65-2.934,5.317-2.934a16.816,16.816,0,0,1,6.967,1.283l.917.367,1.467-7.15Z" transform="translate(-191.163 0)" fill="#293688"/>
      <path id="Path_128" data-name="Path 128" d="M376.918,180.4c-2.2,0-3.85.183-4.767,2.384L358.4,213.4h9.9l1.833-5.5h11.734l1.1,5.5h8.8l-7.7-33Zm-4.217,22c.55-1.65,3.667-9.717,3.667-9.717s.733-2.017,1.283-3.3l.55,3.117s1.833,8.251,2.2,10.084h-7.7Z" transform="translate(-276.261 -3.7)" fill="#3c58bf"/>
      <path id="Path_129" data-name="Path 129" d="M379.118,180.4c-2.2,0-3.85.183-4.767,2.384L358.4,213.4h9.9l1.833-5.5h11.734l1.1,5.5h8.8l-7.7-33Zm-6.417,22c.733-1.833,3.667-9.717,3.667-9.717s.733-2.017,1.283-3.3l.55,3.117s1.833,8.251,2.2,10.084h-7.7Z" transform="translate(-276.261 -3.7)" fill="#293688"/>
      <path id="Path_130" data-name="Path 130" d="M64.951,204.118l-.917-4.767c-1.65-5.5-6.967-11.551-12.834-14.484L59.451,214.2h9.9l14.851-33H74.3Z" transform="translate(-39.466 -4.317)" fill="#3c58bf"/>
      <path id="Path_131" data-name="Path 131" d="M64.951,204.118l-.917-4.767c-1.65-5.5-6.967-11.551-12.834-14.484L59.451,214.2h9.9l14.851-33H76.135Z" transform="translate(-39.466 -4.317)" fill="#293688"/>
      <path id="Path_132" data-name="Path 132" d="M0,180.4l1.65.367c11.734,2.75,19.8,9.717,22.918,17.968l-3.3-15.584c-.55-2.2-2.2-2.75-4.217-2.75Z" transform="translate(0 -3.7)" fill="#ffbc00"/>
      <path id="Path_133" data-name="Path 133" d="M0,180.4H0c11.734,2.75,21.451,9.9,24.568,18.151l-3.117-13.018a4.475,4.475,0,0,0-4.4-3.484Z" transform="translate(0 -3.7)" fill="#f7981d"/>
      <path id="Path_134" data-name="Path 134" d="M0,180.4H0c11.734,2.75,21.451,9.9,24.568,18.151l-2.2-7.15c-.55-2.2-1.283-4.4-3.85-5.317Z" transform="translate(0 -3.7)" fill="#ed7c00"/>
      <g id="Group_21" data-name="Group 21" transform="translate(11.917 180.367)">
        <path id="Path_135" data-name="Path 135" d="M74.735,214.735,68.5,208.5l-2.934,6.967-.733-4.584c-1.65-5.5-6.967-11.551-12.834-14.484l8.251,29.335h9.9Z" transform="translate(-52 -196.4)" fill="#051244"/>
        <path id="Path_136" data-name="Path 136" d="M194.151,297.267l-7.884-8.067-1.467,8.067Z" transform="translate(-154.365 -267.932)" fill="#051244"/>
        <path id="Path_137" data-name="Path 137" d="M263.951,274.8h0c.733.733,1.1,1.283.917,2.017,0,2.2-2.934,3.3-5.5,3.3a19.929,19.929,0,0,1-8.8-1.833l-1.283-.55L248,285.251a29.729,29.729,0,0,0,10.451,1.833c5.867,0,10.634-1.65,13.384-4.584Z" transform="translate(-203.08 -256.832)" fill="#051244"/>
        <path id="Path_138" data-name="Path 138" d="M364,243.618h8.617l1.833-5.5h11.734l1.1,5.5h8.8l-3.117-13.384-11-10.634.55,2.934s1.833,8.251,2.2,10.084h-7.7c.733-1.833,3.667-9.717,3.667-9.717s.733-2.017,1.283-3.3" transform="translate(-292.495 -214.283)" fill="#051244"/>
      </g>
    </g>
  </g>
</svg>
